<svg width="512" height="512" viewBox="0 0 512 512" xmlns="http://www.w3.org/2000/svg">
  <defs>
    <linearGradient id="bg" x1="0%" y1="0%" x2="100%" y2="100%">
      <stop offset="0%" style="stop-color:#2563eb;stop-opacity:1" />
      <stop offset="100%" style="stop-color:#1e40af;stop-opacity:1" />
    </linearGradient>
    <linearGradient id="medical" x1="0%" y1="0%" x2="100%" y2="100%">
      <stop offset="0%" style="stop-color:#10b981;stop-opacity:1" />
      <stop offset="100%" style="stop-color:#059669;stop-opacity:1" />
    </linearGradient>
  </defs>
  
  <!-- Background circle -->
  <circle cx="256" cy="256" r="240" fill="url(#bg)" stroke="#1e40af" stroke-width="8"/>
  
  <!-- Medical cross -->
  <rect x="226" y="156" width="60" height="200" rx="8" fill="white"/>
  <rect x="156" y="226" width="200" height="60" rx="8" fill="white"/>
  
  <!-- AI Brain symbols -->
  <circle cx="200" cy="180" r="12" fill="url(#medical)"/>
  <circle cx="312" cy="180" r="12" fill="url(#medical)"/>
  <circle cx="200" cy="332" r="12" fill="url(#medical)"/>
  <circle cx="312" cy="332" r="12" fill="url(#medical)"/>
  
  <!-- Connection lines (AI neural network) -->
  <line x1="200" y1="180" x2="256" y2="200" stroke="url(#medical)" stroke-width="3" opacity="0.7"/>
  <line x1="312" y1="180" x2="256" y2="200" stroke="url(#medical)" stroke-width="3" opacity="0.7"/>
  <line x1="256" y1="312" x2="200" y2="332" stroke="url(#medical)" stroke-width="3" opacity="0.7"/>
  <line x1="256" y1="312" x2="312" y2="332" stroke="url(#medical)" stroke-width="3" opacity="0.7"/>
  <line x1="200" y1="180" x2="200" y2="332" stroke="url(#medical)" stroke-width="2" opacity="0.5"/>
  <line x1="312" y1="180" x2="312" y2="332" stroke="url(#medical)" stroke-width="2" opacity="0.5"/>
  
  <!-- Central AI symbol -->
  <circle cx="256" cy="256" r="20" fill="url(#medical)"/>
  <text x="256" y="266" text-anchor="middle" fill="white" font-family="Arial, sans-serif" font-size="20" font-weight="bold">AI</text>
  
  <!-- Medical stethoscope accent -->
  <path d="M180 140 Q 200 120 220 140" stroke="white" stroke-width="6" fill="none" stroke-linecap="round"/>
  <circle cx="170" cy="150" r="8" fill="white"/>
  <circle cx="230" cy="150" r="8" fill="white"/>
</svg>